# xmcd CD database file
#
# Track frame offsets:
#	150
#	20716
#	39811
#	59130
#	82494
#	101816
#	121628
#	143623
#	163857
#
# Disc length: 2332 seconds
#
# Revision: 0
# Processed by: cddbd v1.4PL0 Copyright (c) Steve Scherf et al.
# Submitted via: CDex 1.50beta10
#
DISCID=7b091a09
DTITLE=Faces - Speak To My Heart
DYEAR=2003
DGENRE=Jazz
TTITLE0=I-N-T-R-O
TTITLE1=From Darkness to Daylist
TTITLE2=Speak To My Heart
TTITLE3=30 Seconds
TTITLE4=God's Light
TTITLE5=Nothing Has Changed
TTITLE6=Have a Little Fun
TTITLE7=Amazing Grace
TTITLE8=Subliminal Message
EXTD=YEAR: 2003
EXTT0=
EXTT1=
EXTT2=
EXTT3=
EXTT4=
EXTT5=
EXTT6=
EXTT7=
EXTT8=
PLAYORDER=
